<svg viewBox="0 0 115 27" fill="none" xmlns="http://www.w3.org/2000/svg">
<path d="M1.65717 1.8H18.5052C26.3172 1.8 29.5212 4.932 29.5212 11.952V16.848C29.5212 23.868 26.3172 27 18.5052 27H1.65717C0.937172 27 0.577172 26.64 0.577172 25.92V2.88C0.577172 2.16 0.937172 1.8 1.65717 1.8ZM6.08517 7.308V21.528C6.08517 21.852 6.22917 21.996 6.55317 21.996H18.3612C22.6092 21.996 24.0132 20.628 24.0132 16.38V12.42C24.0132 8.172 22.6092 6.804 18.3612 6.804H6.55317C6.22917 6.804 6.08517 6.948 6.08517 7.308ZM41.6788 7.236H52.2268C57.1588 7.236 58.4548 8.784 58.4548 13.14V16.56C58.4548 18.108 57.8068 18.612 56.4028 18.612H38.2228V19.476C38.2228 21.744 39.0508 22.68 42.1828 22.68H57.1948C57.6268 22.68 57.8428 22.896 57.8428 23.328V26.352C57.8428 26.784 57.6268 27 57.1948 27H41.6788C35.1988 27 33.1108 24.948 33.1108 19.728V14.544C33.1108 9.324 35.1988 7.236 41.6788 7.236ZM38.2228 14.436V15.408H52.8028C53.2348 15.408 53.4148 15.264 53.4148 14.796V13.284C53.4148 11.808 52.8748 11.232 51.2188 11.232H42.1828C39.0508 11.232 38.2228 12.132 38.2228 14.436ZM63.137 -2.14577e-06H66.665C67.205 -2.14577e-06 67.457 0.251999 67.457 0.791998V26.208C67.457 26.748 67.205 27 66.665 27H63.137C62.597 27 62.345 26.748 62.345 26.208V0.791998C62.345 0.251999 62.597 -2.14577e-06 63.137 -2.14577e-06ZM71.0041 7.236H74.4241V2.484C74.4241 1.944 74.7121 1.692 75.2161 1.692H78.7801C79.2841 1.692 79.5721 1.944 79.5721 2.484V7.236H85.8721C86.3401 7.236 86.5201 7.452 86.5201 7.884V10.836C86.5201 11.268 86.3401 11.484 85.8721 11.484H79.5721V19.836C79.5721 21.816 80.2201 22.752 82.5961 22.752H86.0881C86.5561 22.752 86.7361 22.968 86.7361 23.4V26.352C86.7361 26.784 86.5561 27 86.0881 27H81.7321C75.9721 27 74.4241 24.948 74.4241 19.836V11.484H71.0041C70.5721 11.484 70.3561 11.268 70.3561 10.836V7.884C70.3561 7.452 70.5721 7.236 71.0041 7.236ZM90.0926 7.236H105.645C112.125 7.236 114.213 9.324 114.213 14.544V24.12C114.213 26.46 113.637 27 111.549 27H94.4126C90.1646 27 88.8686 25.452 88.8686 21.888V20.16C88.8686 17.136 90.1646 15.444 94.4126 15.444H109.065V14.76C109.065 12.456 108.273 11.556 105.141 11.556H90.0926C89.6606 11.556 89.4446 11.376 89.4446 10.908V7.884C89.4446 7.452 89.6606 7.236 90.0926 7.236ZM108.021 23.04C108.777 23.04 109.065 22.716 109.065 21.816V18.648H95.8886C94.4126 18.648 93.8726 19.26 93.8726 20.412V21.168C93.8726 22.464 94.4126 23.04 95.8886 23.04H108.021Z" fill="black"/>
</svg>
